<svg width="146px" height="307px" version="1.1" xmlns="http://www.w3.org/2000/svg" xmlns:xlink="http://www.w3.org/1999/xlink" overflow="visible" id="z15kyzsq">
   <desc>Engraved by Verovio 5.2.0[undefined]</desc>
   <defs>
      <symbol id="E272-z15kyzsq" viewBox="0 0 1000 1000" overflow="inherit">
         <path transform="scale(1,-1)" d="M185 176l15 5c1 1 3 1 4 1c4 0 8 -3 8 -8v-502c0 -7 -6 -12 -12 -12h-13c-7 0 -12 5 -12 12v149c0 8 -7 11 -17 11c-29 0 -85 -24 -99 -30c-1 -1 -3 -1 -4 -1l-2 -1c-6 0 -9 3 -9 9v539h-70l91 199l90 -199h-74v-191c0 -4 4 -5 10 -5c26 0 90 23 90 23c1 0 2 1 4 1z M175 -34v103c0 4 -3 5 -9 5c-24 0 -85 -26 -85 -40v-103c0 -4 5 -6 12 -6c25 0 82 23 82 41z" />
      </symbol>
      <symbol id="E261-z15kyzsq" viewBox="0 0 1000 1000" overflow="inherit">
         <path transform="scale(1,-1)" d="M141 181l15 5c1 1 3 1 4 1c4 0 8 -3 8 -8v-502c0 -7 -6 -12 -12 -12h-13c-7 0 -12 5 -12 12v149c0 8 -7 11 -17 11c-29 0 -85 -24 -99 -30c-1 -1 -3 -1 -4 -1l-2 -1c-6 0 -9 3 -9 9v515c0 7 5 12 12 12h13c6 0 12 -5 12 -12v-167c0 -4 4 -5 10 -5c26 0 90 23 90 23 c1 0 2 1 4 1zM37 39v-103c0 -4 5 -6 12 -6c25 0 82 23 82 41v103c0 4 -3 5 -9 5c-24 0 -85 -26 -85 -40z" />
      </symbol>
      <symbol id="E062-z15kyzsq" viewBox="0 0 1000 1000" overflow="inherit">
         <path transform="scale(1,-1)" d="M252 262c173 0 279 -116 279 -290c0 -304 -260 -482 -506 -602c-6 -3 -12 -5 -17 -5c-9 0 -13 6 -13 12c0 8 6 13 15 18c233 133 371 289 371 568c0 157 -46 261 -152 261c-102 0 -162 -73 -162 -113c0 -10 3 -18 16 -18s23 7 50 7c49 0 96 -40 96 -104 c0 -62 -43 -106 -106 -106c-81 0 -123 69 -123 149c0 96 78 223 252 223zM629 180c31 0 55 -24 55 -55s-24 -55 -55 -55s-55 24 -55 55s24 55 55 55zM630 -71c31 0 54 -23 54 -54s-23 -54 -54 -54s-54 23 -54 54s23 54 54 54z" />
      </symbol>
      <symbol id="E050-z15kyzsq" viewBox="0 0 1000 1000" overflow="inherit">
         <path transform="scale(1,-1)" d="M376 415l25 -145c3 -18 3 -18 29 -18c147 0 241 -113 241 -241c0 -113 -67 -198 -168 -238c-14 -6 -15 -5 -13 -17c11 -62 29 -157 29 -214c0 -170 -130 -200 -197 -200c-151 0 -190 98 -190 163c0 62 40 115 107 115c61 0 96 -47 96 -102c0 -58 -36 -85 -67 -94 c-23 -7 -32 -10 -32 -17c0 -13 26 -29 80 -29c59 0 159 18 159 166c0 47 -15 134 -27 201c-2 12 -4 11 -15 9c-20 -4 -46 -6 -69 -6c-245 0 -364 165 -364 339c0 202 153 345 297 464c12 10 11 12 9 24c-7 41 -14 106 -14 164c0 104 24 229 98 311c20 22 51 48 65 48 c11 0 37 -28 52 -50c41 -60 65 -146 65 -233c0 -153 -82 -280 -190 -381c-6 -6 -8 -7 -6 -19zM470 943c-61 0 -133 -96 -133 -252c0 -32 2 -66 6 -92c2 -13 6 -14 13 -8c79 69 174 159 174 270c0 55 -27 82 -60 82zM361 262l-21 128c-2 11 -4 12 -14 4 c-47 -38 -93 -75 -153 -142c-83 -94 -93 -173 -93 -232c0 -139 113 -236 288 -236c20 0 40 2 56 5c15 3 16 3 14 14l-50 298c-2 11 -4 12 -20 8c-61 -17 -100 -60 -100 -117c0 -46 30 -89 72 -107c7 -3 15 -6 15 -13c0 -6 -4 -11 -12 -11c-7 0 -19 3 -27 6 c-68 23 -115 87 -115 177c0 85 57 164 145 194c18 6 18 5 15 24zM430 103l49 -285c2 -12 4 -12 16 -6c56 28 94 79 94 142c0 88 -67 156 -148 163c-12 1 -13 -2 -11 -14z" />
      </symbol>
      <symbol id="E0A4-z15kyzsq" viewBox="0 0 1000 1000" overflow="inherit">
         <path transform="scale(1,-1)" d="M97 -125c-54 0 -97 31 -97 83c0 86 88 167 198 167c57 0 97 -32 97 -83c0 -85 -109 -167 -198 -167z" />
      </symbol>
      <symbol id="E283-z15kyzsq" viewBox="0 0 1000 1000" overflow="inherit">
         <path transform="scale(1,-1)" d="M317 225v-77c0 -4 -3 -7 -8 -8c0 0 -33 -13 -37 -14c-5 -2 -6 -6 -6 -13v-117c0 -7 3 -12 9 -12l1 1c7 3 33 13 35 13c4 0 6 -5 6 -8v-78c0 -4 -3 -6 -8 -8l-35 -13c-3 -1 -8 -6 -8 -12v-148c0 -13 -3 -16 -16 -16s-16 2 -16 16v134c0 5 -2 8 -6 8c-2 0 -4 -1 -6 -2 l-36 -13c-6 -2 -10 -8 -10 -16v-142c0 -13 -3 -16 -16 -16s-16 2 -16 16v131c0 6 -2 8 -8 8l-48 -19c-4 -1 -6 -7 -6 -13v-138c0 -13 -3 -16 -16 -16s-16 3 -16 16v124c0 6 -2 9 -7 9c-2 0 -4 0 -6 -1c-9 -3 -26 -10 -27 -10c-4 0 -7 4 -7 8v78c0 4 3 6 8 8l29 11 c5 2 10 9 10 17v116c0 6 -1 10 -6 10c-1 0 -2 0 -4 -1c-8 -4 -29 -11 -31 -11c-3 0 -6 4 -6 8v77c0 4 3 6 8 8l31 12c5 2 8 5 8 15v145c0 13 3 16 16 16s16 -3 16 -16v-133c0 -6 3 -9 8 -9l1 1h1l43 16c7 3 9 9 9 16v139c0 13 3 16 16 16s16 -2 16 -16v-127c0 -5 2 -9 10 -9 c13 6 36 14 40 16c6 2 8 6 8 19v132c0 13 3 16 16 16s16 -2 16 -16v-127c0 -5 2 -7 4 -7c1 0 2 0 3 1c5 2 36 13 38 13c4 0 6 -4 6 -8zM234 -31c2 5 3 48 3 85c0 29 -1 55 -3 58c0 0 -2 1 -3 1c-12 0 -48 -15 -52 -23c-2 -5 -3 -42 -3 -77c0 -32 1 -62 3 -65c1 -1 3 -2 6 -2 c14 0 46 15 49 23zM82 -88c1 -1 3 -2 6 -2c15 0 53 15 56 25c2 6 3 45 3 80c0 31 -1 59 -3 62c-1 1 -2 2 -5 2c-14 0 -54 -16 -57 -25c-2 -7 -3 -50 -3 -87c0 -27 0 -51 3 -55z" />
      </symbol>
      <symbol id="E273-z15kyzsq" viewBox="0 0 1000 1000" overflow="inherit">
         <path transform="scale(1,-1)" d="M171 -329h79l-97 -214l-97 214h78v150c0 8 -7 11 -17 11c-29 0 -85 -24 -99 -30c-1 -1 -3 -1 -4 -1l-2 -1c-6 0 -9 3 -9 9v515c0 7 5 12 12 12h13c6 0 12 -5 12 -12v-167c0 -4 4 -5 10 -5c26 0 90 23 90 23c1 0 2 1 4 1l15 5c1 1 3 1 4 1c4 0 8 -3 8 -8v-503zM40 34v-103 c0 -4 5 -6 12 -6c25 0 82 23 82 41v103c0 4 -3 5 -9 5c-24 0 -85 -26 -85 -40z" />
      </symbol>
      <symbol id="E282-z15kyzsq" viewBox="0 0 1000 1000" overflow="inherit">
         <path transform="scale(1,-1)" d="M179 167v-71c0 -7 -6 -14 -12 -17c0 0 -42 -16 -51 -20c-8 -3 -13 -21 -13 -29v-93c0 -11 7 -17 14 -17c4 1 50 20 50 20v-1h1l2 1c6 0 9 -3 9 -9v-71c0 -6 -6 -14 -12 -16c0 0 -45 -18 -53 -20c-4 -2 -8 -8 -9 -14c-1 -3 -1 -5 -1 -8v-138c0 -10 -2 -17 -17 -17 c-8 0 -14 5 -14 11v125c0 8 -9 21 -14 19c-9 -4 -47 -20 -48 -20l-2 -1c-6 0 -9 3 -9 9v71c0 6 6 14 12 16l52 22c6 2 10 11 10 22v100c0 8 -6 17 -13 17l-1 -1c-9 -3 -48 -20 -49 -20l-2 -1c-6 0 -9 3 -9 9v71c0 6 6 14 12 16c17 7 33 15 51 22c7 6 10 18 10 26v130 c0 8 2 17 17 17c8 0 14 -5 14 -11v-120c0 -9 4 -20 13 -20c2 0 50 18 50 18c1 1 3 1 4 1c4 0 8 -3 8 -8z" />
      </symbol>
      <symbol id="E280-z15kyzsq" viewBox="0 0 1000 1000" overflow="inherit">
         <path transform="scale(1,-1)" d="M215 -170c-3 -4 -6 -5 -9 -5s-6 2 -6 2c-30 17 -54 44 -79 61c-89 62 -120 123 -120 171c0 55 44 91 90 94c17 0 41 -8 55 -17c6 -5 17 -14 22 -14c2 0 3 0 5 1c7 3 11 10 11 17c-1 22 -7 262 -7 282c0 11 9 17 19 17c14 0 30 -10 31 -28c0 0 -4 -571 -12 -581zM180 -81 c0 0 3 60 3 100c0 16 -1 28 -2 32c-7 20 -47 49 -70 49c-29 0 -41 -33 -41 -58c0 -54 46 -108 89 -135c4 -2 7 -3 10 -3c9 0 11 10 11 15z" />
      </symbol>
   </defs>
   <style type="text/css">#z15kyzsq g.page-margin {font-family:Times,serif;}#z15kyzsq g.ending, #z15kyzsq g.fing, #z15kyzsq g.reh, #z15kyzsq g.tempo {font-weight:bold;}#z15kyzsq g.dir, #z15kyzsq g.dynam, #z15kyzsq g.mNum {font-style:italic;}#z15kyzsq g.label {font-weight:normal;}#z15kyzsq path {stroke:currentColor}</style>
   <svg class="definition-scale" color="black" viewBox="0 0 3640 7660">
      <g class="page-margin" transform="translate(500, 500)">
         <g id="d1pyuhrr" class="mdiv pageMilestone" />
         <g id="q1qhahuo" class="score pageMilestone" />
         <g id="di8o9ra" class="system">
            <path d="M13 540 L13 3936" stroke-width="27" />
            <g id="f1nzgxol" class="grpSym">
               <path d="M-72,3918 C-432,3378 18,2418 -252,2238 C81,2418 -369,3378 -72,3918" stroke-linecap="round" stroke-linejoin="round" stroke-width="18" />
               <path d="M-72,558 C-369,1098 81,2058 -252,2238 C18,2058 -432,1098 -72,558" stroke-linecap="round" stroke-linejoin="round" stroke-width="18" />
            </g>
            <g id="p11joy2a" class="section systemMilestone" />
            <g id="h1szb6ny" class="measure">
               <g id="uo16cwd" class="staff">
                  <path d="M0 540 L2640 540" stroke-width="13" />
                  <path d="M0 720 L2640 720" stroke-width="13" />
                  <path d="M0 900 L2640 900" stroke-width="13" />
                  <path d="M0 1080 L2640 1080" stroke-width="13" />
                  <path d="M0 1260 L2640 1260" stroke-width="13" />
                  <g id="bnc8lt8" class="clef">
                     <use xlink:href="#E050-z15kyzsq" x="120" y="1080" height="720px" width="720px" />
                  </g>
                  <g id="gpvfzfy" class="keySig" />
                  <g id="h1ag9njp" class="layer">
                     <g id="r1a13ntl" class="chord">
                        <g id="note_4" class="note">
                           <g class="notehead">
                              <use xlink:href="#E0A4-z15kyzsq" x="1950" y="1260" height="720px" width="720px" />
                           </g>
                           <g id="z1ceeqia" class="accid">
                              <use xlink:href="#E280-z15kyzsq" x="1431" y="1260" height="720px" width="720px" />
                           </g>
                        </g>
                        <g id="note_5" class="note">
                           <g class="notehead">
                              <use xlink:href="#E0A4-z15kyzsq" x="1950" y="1080" height="720px" width="720px" />
                           </g>
                           <g id="n1jfdipp" class="accid">
                              <use xlink:href="#E261-z15kyzsq" x="883" y="1080" height="720px" width="720px" />
                           </g>
                        </g>
                        <g id="note_6" class="note">
                           <g class="notehead">
                              <use xlink:href="#E0A4-z15kyzsq" x="1756" y="1080" height="720px" width="720px" />
                           </g>
                           <g id="n1vifdbu" class="accid">
                              <use xlink:href="#E282-z15kyzsq" x="1238" y="1080" height="720px" width="720px" />
                           </g>
                        </g>
                        <g id="note_7" class="note">
                           <g class="notehead">
                              <use xlink:href="#E0A4-z15kyzsq" x="1950" y="810" height="720px" width="720px" />
                           </g>
                           <g id="u1e6gbz6" class="accid">
                              <use xlink:href="#E273-z15kyzsq" x="1030" y="810" height="720px" width="720px" />
                           </g>
                        </g>
                        <g id="note_8" class="note">
                           <g class="notehead">
                              <use xlink:href="#E0A4-z15kyzsq" x="1756" y="810" height="720px" width="720px" />
                           </g>
                           <g id="qxrguna" class="accid">
                              <use xlink:href="#E261-z15kyzsq" x="1395" y="810" height="720px" width="720px" />
                           </g>
                        </g>
                        <g id="note_9" class="note">
                           <g class="notehead">
                              <use xlink:href="#E0A4-z15kyzsq" x="1950" y="720" height="720px" width="720px" />
                           </g>
                           <g id="qzol6db" class="accid">
                              <use xlink:href="#E282-z15kyzsq" x="1583" y="720" height="720px" width="720px" />
                           </g>
                        </g>
                     </g>
                  </g>
               </g>
               <g id="qtjr37w" class="staff">
                  <path d="M0 3216 L2640 3216" stroke-width="13" />
                  <path d="M0 3396 L2640 3396" stroke-width="13" />
                  <path d="M0 3576 L2640 3576" stroke-width="13" />
                  <path d="M0 3756 L2640 3756" stroke-width="13" />
                  <path d="M0 3936 L2640 3936" stroke-width="13" />
                  <g id="fx1n52n" class="clef">
                     <use xlink:href="#E062-z15kyzsq" x="120" y="3396" height="720px" width="720px" />
                  </g>
                  <g id="cfizwuw" class="keySig" />
                  <g class="ledgerLines below">
                     <path d="M1902 4116 L2210 4116" stroke-width="22" />
                     <path d="M1902 4296 L2210 4296" stroke-width="22" />
                     <path d="M1902 4476 L2210 4476" stroke-width="22" />
                     <path d="M1902 4656 L2210 4656" stroke-width="22" />
                     <path d="M1902 4836 L2210 4836" stroke-width="22" />
                     <path d="M1902 5016 L2210 5016" stroke-width="22" />
                  </g>
                  <g id="lvm4jt6" class="layer">
                     <g id="r1soerjr" class="chord">
                        <g id="note_0" class="note">
                           <g class="notehead">
                              <use xlink:href="#E0A4-z15kyzsq" x="1950" y="5016" height="720px" width="720px" />
                           </g>
                           <g id="j1ray6ga" class="accid">
                              <use xlink:href="#E272-z15kyzsq" x="1726" y="5016" height="720px" width="720px" />
                           </g>
                        </g>
                        <g id="note_1" class="note">
                           <g class="notehead">
                              <use xlink:href="#E0A4-z15kyzsq" x="1950" y="4206" height="720px" width="720px" />
                           </g>
                           <g id="x1gz9isq" class="accid">
                              <use xlink:href="#E282-z15kyzsq" x="1751" y="4206" height="720px" width="720px" />
                           </g>
                        </g>
                        <g id="note_2" class="note">
                           <g class="notehead">
                              <use xlink:href="#E0A4-z15kyzsq" x="1950" y="3666" height="720px" width="720px" />
                           </g>
                           <g id="ocin2nq" class="accid">
                              <use xlink:href="#E280-z15kyzsq" x="1488" y="3666" height="720px" width="720px" />
                           </g>
                        </g>
                        <g id="note_3" class="note">
                           <g class="notehead">
                              <use xlink:href="#E0A4-z15kyzsq" x="1950" y="3216" height="720px" width="720px" />
                           </g>
                           <g id="vsqt2zu" class="accid">
                              <use xlink:href="#E283-z15kyzsq" x="1677" y="3216" height="720px" width="720px" />
                           </g>
                        </g>
                     </g>
                  </g>
               </g>
               <g id="y1wurqv4" class="barLine" />
            </g>
            <g id="z1q7f7uy" class="systemMilestoneEnd p11joy2a" />
         </g>
         <g id="o1xn3vo7" class="pageMilestoneEnd q1qhahuo" />
         <g id="sxrjkxr" class="pageMilestoneEnd d1pyuhrr" />
         <g id="o1jhd07u" class="pgHead autogenerated" />
         <g id="r1mjz15r" class="pgFoot autogenerated">
            <g id="k1qaqq4e" class="fig">
               <g class="svg" transform="translate(2250, 196899) scale(10.000000, 10.000000)">
                  <g>
                     <path fill="#00000" d="M 17.11278,49.26451 V 10.367554 h 12.696511 c 3.288815,7.336676 6.71267,14.610456 10.127281,21.888976 3.419998,-7.484684 6.255515,-14.204887 9.58887,-21.909915 2.436207,0.103726 4.316952,0.08453 6.484294,-0.05808 V 49.264423 H 50.274275 C 50.145222,38.35639 50.016136,27.448368 49.887066,16.540329 45.003488,27.315459 39.967448,38.433564 35.083854,49.208695 34.678996,49.343717 34.426583,49.135619 34.021726,49.270644 29.46588,39.330716 24.910049,29.390805 20.354201,19.450876 20.224341,29.388756 20.09461,39.326619 19.964815,49.264497 H 17.11278 Z M 36.754144,39.324695 C 32.721221,30.512695 28.6883,21.700679 24.655394,12.888662 22.530527,12.750737 22.656775,12.71031 20.714356,12.813974 v 0.966497 c 4.612938,9.99784 9.609439,20.748709 13.87298,30.081745 0.722248,-1.512523 1.444528,-3.025014 2.166808,-4.537521 z m 25.738417,9.939815 c 0,-12.965651 0,-25.931305 0,-38.896956 10.084388,0 20.168791,0 30.253178,0 0,0.960416 0,1.920849 0,2.881265 -6.482825,0 -12.965652,0 -19.448478,0 0,4.802097 0,9.604178 0,14.406277 5.52241,0 11.044819,0 16.567229,0 0,0.960415 0,1.920832 0,2.881248 -5.52241,0 -11.044819,0 -16.567229,0 0,5.282306 0,10.564611 0,15.846917 6.963035,0 13.926068,0 20.889103,0 0,0.960416 0,1.920832 0,2.881249 -10.564597,0 -21.129207,0 -31.693803,0 z m 4.321874,-2.160937 c 0,-11.765131 0,-23.530263 0,-35.295394 -0.720312,0 -1.440625,0 -2.160937,0 0,11.765131 0,23.530263 0,35.295394 0.720312,0 1.440625,0 2.160937,0 z m 32.41413,2.160937 c 0,-12.965651 0,-25.931305 0,-38.896956 2.401045,0 4.802095,0 7.203135,0 0,12.965651 0,25.931305 0,38.896956 -2.40104,0 -4.80209,0 -7.203135,0 z m 2.881265,-2.160937 c 0,-11.765131 0,-23.530263 0,-35.295394 -0.72031,0 -1.44064,0 -2.160953,0 0,11.765131 0,23.530263 0,35.295394 0.720313,0 1.440643,0 2.160953,0 z" />
                     <path fill="#00000" d="m 346.3,6.7 c -3.1,0.5 -4.9,4.4 -2.7,6.8 1.2,1.4 2.7,2.4 4.1,3.5 -2.4,5.3 -7.7,8.3 -11.9,12.1 -3.7,2.8 -7,6.2 -9.7,9.9 -2.2,-0.8 -0.91472,-7.718806 -0.62677,-9.5 0.28796,-1.781194 0.72677,-6.4 2.92677,-8.7 1.3,-1.9 3,-3.5 4.5,-5.2 1.2,-3.4 -3.2,-4.9 -5.8,-4.6 -7.3,-0.5 -14.6,2 -20,6.8 -5,4.6 -10,10.1 -11.5,17 -0.9,3.5 -0.2,7.5 2.8,9.9 2.5,2.8 7.4,2.9 9.8,-0.2 1.7,-2.3 3.2,-4.8 3.8,-7.6 -0.1,-2.6 -4.4,-2.3 -4.3,0.2 1.2,2.4 -0.9,4.7 -2.7,6.2 -1.7,0.9 -4.7,0.7 -4.8,-1.7 -1,-5.8 2.1,-11.3 5.2,-16.1 4,-5.8 9.8,-11.2 17.2,-11.8 1.6,0 8.1,-1.2 6.8,1.4 -2.8,2.8 -5.6,6.1 -6,10.3 -1.6,7.7 0.1,15.7 -2.3,23.2 -1.1,3.9 2,2.6 2.5,0.2 3.3,-7.4 8.9,-13.4 15.1,-18.5 4.2,-3.9 9.5,-7.1 11.9,-12.6 1.3,-3.6 1.2,-9 -2.7,-10.9 -0.50431,-0.1767056 -1.06965,-0.1654404 -1.6,-0.1 z m 66,14.5 c -2,0.8 -1.8,4.9 0.8,4.4 3.4,0.4 2.9,-6.2 -0.8,-4.4 z m 0.6,7.3 c -1.3,0.5 -7.6,0.5 -5.4,2.2 4,-0.3 0.7,4.5 0.6,6.7 -0.4,2.9 -2.4,5.9 -1.2,8.8 2.7,1.7 5.6,-0.8 6.8,-3.2 1.6,-1.4 -0.5,-3 -1.2,-0.9 -0.4,0.8 -2.4,3.5 -2.6,1.8 1.1,-5 2.7,-9.9 3.9,-14.9 l -0.1,-0.5 h -0.9 z m -65.1,0.2 c -6.5,1.6 -10.5,9.5 -8.2,15.7 2.1,3.4 7.4,2.9 10.1,0.4 2,-0.2 3.6,-5.3 1,-3.4 -1.4,2 -4,4.2 -6.5,2.8 -2.2,-1.9 -1.9,-5.7 1.7,-5.3 3.1,-0.9 6.9,-2.1 8.1,-5.5 0.9,-2.7 -1.6,-5.2 -4.3,-4.8 h -1.1 -0.7 z m 13.6,0 c -2.2,0 -8.5,1.8 -2.9,2.3 0.9,1.9 -1,4.9 -1.1,7.2 -0.5,2.9 -1.4,5.7 -1.7,8.7 3.7,0.7 3.8,-2.6 4.4,-5.3 0.9,-3.3 1.6,-7 4.1,-9.5 2.4,1.6 6.8,-0.7 3.7,-3.4 -2.9,-0.5 -4.8,2.4 -6.2,4.3 0,-1.2 2.4,-5 -0.2,-4.3 z m 15.8,0 c -6.4,1.3 -9.6,9.1 -7.7,14.9 1.9,4 7.7,3.9 11,1.7 4.1,-3 6,-8.9 4.4,-13.7 -1.3,-3 -4.8,-3.2 -7.6,-3 z m 17,0 c -2.3,0 -8.8,1.9 -3,2.4 0.4,2.5 -1,5.7 -1.4,8.4 -0.7,2.4 -1.8,7.5 2.1,7.2 3.8,-0.1 6.5,-3.5 8.5,-6.3 2,-3.2 4.5,-7 3.3,-10.9 -3.7,-3 -3.6,2.6 -3.1,5.1 -0.7,3.8 -2.7,7.9 -6.2,9.8 -3.6,0.6 -1,-4.3 -0.8,-6.1 0.6,-3.2 1.6,-6.3 1.9,-9.5 h -1.1 z m 30.6,0 c -6.3,1.2 -9.5,8.9 -7.8,14.7 1.5,4 7.2,4.2 10.5,2.4 4.6,-2.8 6.6,-9.3 4.8,-14.3 -1.4,-2.8 -4.8,-3 -7.5,-2.8 z m -75.4,1.7 c 2.1,1.5 0.2,4.7 -1.6,5.7 -1.1,0.4 -5.5,3.4 -4.6,0.7 0.8,-2.7 2.2,-6.2 5.3,-6.6 l 0.9,0.1 z m 30.8,0 c 2.6,1.5 1.3,5.2 0.8,7.6 -0.8,2.7 -1.9,5.9 -4.7,7.1 -5.1,0.8 -4,-5.8 -2.8,-8.8 1,-2.8 3,-6.8 6.7,-5.8 z m 47.1,-0.1 c 2.9,0.7 2,4.7 1.5,6.8 -0.7,3 -1.8,6.7 -5,8 -4.7,0.8 -4,-5.1 -3,-7.9 0.9,-3 2.7,-7.3 6.5,-6.8 z" />
                     <text y="41" x="201" fill="#00000" style="font-style:italic;font-weight:normal;font-size:30px;line-height:125%;font-family:Times;text-anchor:middle">engraved with</text>
                  </g>
               </g>
            </g>
         </g>
      </g>
   </svg>
</svg>
